# xmcd CD database file
#
# Track frame offsets:
#	150
#	19457
#	44915
#	59842
#	74377
#	100065
#	114750
#	132357
#	148510
#	163517
#
# Disc length: 2618 seconds
#
# Revision: 2
# Processed by: cddbd v1.5.1PL0 Copyright (c) Steve Scherf et al.
# Submitted via: CDex 1.51
#
DISCID=950a380a
DTITLE=Billy Joel - Piano Man
DYEAR=1975
DGENRE=Blues
TTITLE0=Travellin' Prayer
TTITLE1=Piano Man
TTITLE2=Ain't No Crime
TTITLE3=You're My Home
TTITLE4=The Ballad of Billy The Kid
TTITLE5=Worse Comes To Worst
TTITLE6=Stop In Nevada
TTITLE7=If I Only Had The Words (To Tell You)
TTITLE8=Somewhere Along The Line
TTITLE9=Captain Jack
EXTD=YEAR: 1975
EXTT0=
EXTT1=
EXTT2=
EXTT3=
EXTT4=
EXTT5=
EXTT6=
EXTT7=
EXTT8=
EXTT9=
PLAYORDER=
